# Blender v2.80 (sub 75) OBJ File: ''
# www.blender.org
mtllib tree.mtl
o Icosphere
v -0.816180 3.972521 -2.228906
v -0.084429 7.723901 2.722674
v -1.884970 7.225192 -2.452487
v 1.255230 7.084310 -2.884748
v 3.055092 7.084311 0.385673
v -0.641328 9.368817 -0.407443
v 0.450303 2.869673 0.385670
v -0.106596 4.514589 2.722674
v 2.500835 4.514598 0.844376
v -2.700293 4.062540 -0.010887
v 1.520219 4.514594 -2.215858
v 0.892723 6.283419 3.030581
v -2.821487 7.212078 1.585002
v -3.293500 5.955072 -0.010887
v 0.942724 9.053038 0.743435
vt 0.272727 0.000000
vt 0.194689 0.137153
vt 0.340601 0.117562
vt 0.318592 0.288606
vt 0.681202 0.157461
vt 0.658666 0.274305
vt 0.818181 0.236191
vt 0.863020 0.157461
vt 0.985060 0.289045
vt 0.476848 0.274305
vt 0.499383 0.157461
vt 0.864252 0.314921
vt 0.727272 0.393651
vt 0.932540 0.431766
vt 0.106898 0.289045
vt 0.181818 0.393651
vt 0.351338 0.412450
vt 0.590909 0.393651
vt 0.522419 0.432483
vt 0.863635 0.393651
vt 0.181818 0.236191
vt 0.136065 0.116845
vt 0.000000 0.157461
vt 0.477994 0.040616
vt 0.386671 0.117562
vt 0.067874 0.039899
vt 0.636363 0.078731
vt 0.805883 0.059932
vn -0.3185 -0.9188 -0.2333
vn -0.7364 -0.2842 -0.6140
vn 0.7814 -0.0576 0.6214
vn -0.3543 0.0375 0.9344
vn -0.1405 -0.1138 -0.9835
vn 0.8755 -0.0351 -0.4819
vn 0.5792 0.5052 0.6398
vn -0.3510 0.8017 0.4838
vn -0.7690 0.6144 -0.1764
vn -0.0650 0.7083 -0.7029
vn 0.6110 0.7167 -0.3363
vn 0.4477 0.8015 -0.3964
vn -0.1796 0.8573 0.4825
vn -0.8170 0.5452 -0.1877
vn -0.3743 -0.0560 0.9256
vn 0.5746 0.5242 0.6285
vn 0.0623 -0.2454 -0.9674
vn -0.7795 -0.2443 -0.5768
vn -0.8474 -0.2656 0.4598
vn -0.6444 -0.3652 0.6718
vn 0.5287 -0.4264 0.7339
vn 0.9217 -0.2515 -0.2953
vn 0.2029 -0.8632 -0.4624
vn -0.3631 -0.8005 0.4769
vn 0.6399 -0.7406 -0.2051
vn 0.4227 -0.6906 0.5868
usemtl Material.002
s off
f 7/1/1 10/2/1 1/3/1
f 1/3/2 10/2/2 3/4/2
f 9/5/3 5/6/3 12/7/3
f 8/8/4 12/7/4 13/9/4
f 1/3/5 3/4/5 4/10/5
f 11/11/6 4/10/6 5/6/6
f 2/12/7 5/6/7 15/13/7
f 13/9/8 2/12/8 6/14/8
f 3/4/9 13/15/9 6/16/9
f 4/10/10 3/4/10 6/17/10
f 5/6/11 4/10/11 15/18/11
f 15/18/12 4/10/12 6/19/12
f 6/14/13 2/12/13 15/20/13
f 14/21/14 13/15/14 3/4/14
f 13/9/15 12/7/15 2/12/15
f 12/7/16 5/6/16 2/12/16
f 11/11/17 1/3/17 4/10/17
f 3/4/18 10/2/18 14/21/18
f 14/21/19 10/22/19 13/15/19
f 10/22/20 8/23/20 13/15/20
f 8/8/21 9/5/21 12/7/21
f 9/5/22 11/11/22 5/6/22
f 7/24/23 1/25/23 11/11/23
f 7/26/24 8/23/24 10/22/24
f 9/5/25 7/27/25 11/11/25
f 7/28/26 9/5/26 8/8/26
o Cylinder
v 0.000000 3.211705 0.346220
v 0.000000 -0.600788 0.600788
v -0.067544 3.211705 0.339567
v -0.117208 -0.600788 0.589244
v -0.132493 3.211705 0.319865
v -0.229912 -0.600788 0.555056
v -0.192349 3.211705 0.287871
v -0.333780 -0.600788 0.499537
v -0.244814 3.211705 0.244814
v -0.424821 -0.600788 0.424821
v -0.287871 3.211705 0.192349
v -0.499537 -0.600788 0.333780
v -0.319866 3.211705 0.132492
v -0.555056 -0.600788 0.229911
v -0.339567 3.211705 0.067544
v -0.589244 -0.600788 0.117208
v -0.346220 3.211705 -0.000000
v -0.600788 -0.600788 -0.000000
v -0.339568 3.211705 -0.067545
v -0.589244 -0.600788 -0.117208
v -0.319866 3.211705 -0.132493
v -0.555056 -0.600788 -0.229912
v -0.287871 3.211705 -0.192350
v -0.499537 -0.600788 -0.333781
v -0.244814 3.211705 -0.244815
v -0.424821 -0.600788 -0.424822
v -0.192349 3.211705 -0.287872
v -0.333780 -0.600788 -0.499538
v -0.132493 3.211705 -0.319866
v -0.229912 -0.600788 -0.555057
v -0.067544 3.211705 -0.339568
v -0.117208 -0.600788 -0.589245
v 0.000000 3.211705 -0.346220
v 0.000000 -0.600788 -0.600789
v 0.067544 3.211705 -0.339568
v 0.117208 -0.600788 -0.589245
v 0.132493 3.211705 -0.319866
v 0.229912 -0.600788 -0.555056
v 0.192350 3.211705 -0.287872
v 0.333781 -0.600788 -0.499538
v 0.244815 3.211705 -0.244815
v 0.424822 -0.600788 -0.424822
v 0.287872 3.211705 -0.192350
v 0.499538 -0.600788 -0.333780
v 0.319866 3.211705 -0.132493
v 0.555056 -0.600788 -0.229912
v 0.339568 3.211705 -0.067544
v 0.589245 -0.600788 -0.117208
v 0.346220 3.211705 -0.000000
v 0.600788 -0.600788 0.000000
v 0.339568 3.211705 0.067544
v 0.589244 -0.600788 0.117208
v 0.319866 3.211705 0.132493
v 0.555056 -0.600788 0.229912
v 0.287871 3.211705 0.192349
v 0.499537 -0.600788 0.333780
v 0.244814 3.211705 0.244814
v 0.424821 -0.600788 0.424822
v 0.192349 3.211705 0.287871
v 0.333780 -0.600788 0.499537
v 0.132492 3.211705 0.319865
v 0.229911 -0.600788 0.555056
v 0.067544 3.211705 0.339567
v 0.117207 -0.600788 0.589244
vt 1.000000 1.000000
vt 0.968750 0.500000
vt 1.000000 0.500000
vt 0.968750 1.000000
vt 0.937500 0.500000
vt 0.937500 1.000000
vt 0.906250 0.500000
vt 0.906250 1.000000
vt 0.875000 0.500000
vt 0.875000 1.000000
vt 0.843750 0.500000
vt 0.843750 1.000000
vt 0.812500 0.500000
vt 0.812500 1.000000
vt 0.781250 0.500000
vt 0.750000 1.000000
vt 0.750000 0.500000
vt 0.718750 0.500000
vt 0.718750 1.000000
vt 0.687500 0.500000
vt 0.656250 1.000000
vt 0.656250 0.500000
vt 0.625000 0.500000
vt 0.625000 1.000000
vt 0.593750 0.500000
vt 0.593750 1.000000
vt 0.562500 0.500000
vt 0.562500 1.000000
vt 0.531250 0.500000
vt 0.531250 1.000000
vt 0.500000 0.500000
vt 0.500000 1.000000
vt 0.468750 0.500000
vt 0.468750 1.000000
vt 0.437500 0.500000
vt 0.437500 1.000000
vt 0.406250 0.500000
vt 0.406250 1.000000
vt 0.375000 0.500000
vt 0.375000 1.000000
vt 0.343750 0.500000
vt 0.312500 1.000000
vt 0.312500 0.500000
vt 0.281250 0.500000
vt 0.281250 1.000000
vt 0.250000 0.500000
vt 0.250000 1.000000
vt 0.218750 0.500000
vt 0.218750 1.000000
vt 0.187500 0.500000
vt 0.187500 1.000000
vt 0.156250 0.500000
vt 0.156250 1.000000
vt 0.125000 0.500000
vt 0.125000 1.000000
vt 0.093750 0.500000
vt 0.093750 1.000000
vt 0.062500 0.500000
vt 0.028269 0.341844
vt 0.158156 0.028269
vt 0.471731 0.158156
vt 0.062500 1.000000
vt 0.031250 0.500000
vt 0.031250 1.000000
vt 0.000000 0.500000
vt 0.985388 0.296822
vt 0.796822 0.014612
vt 0.514611 0.203179
vt 0.341844 0.471731
vt 0.296822 0.485388
vt 0.250000 0.490000
vt 0.203179 0.485389
vt 0.158156 0.471731
vt 0.116663 0.449553
vt 0.080295 0.419706
vt 0.050447 0.383337
vt 0.014612 0.296822
vt 0.010000 0.250000
vt 0.014611 0.203179
vt 0.028269 0.158156
vt 0.050447 0.116663
vt 0.080294 0.080294
vt 0.116663 0.050447
vt 0.203178 0.014612
vt 0.341844 0.028269
vt 0.250000 0.010000
vt 0.296822 0.014612
vt 0.383337 0.050447
vt 0.419706 0.080294
vt 0.449553 0.116663
vt 0.485388 0.203178
vt 0.490000 0.250000
vt 0.485388 0.296822
vt 0.471731 0.341844
vt 0.449553 0.383337
vt 0.419706 0.419706
vt 0.383337 0.449553
vt 0.703179 0.485389
vt 0.750000 0.490000
vt 0.883337 0.449553
vt 0.796822 0.485388
vt 0.841844 0.471731
vt 0.919706 0.419706
vt 0.949553 0.383337
vt 0.971731 0.341844
vt 0.990000 0.250000
vt 0.985388 0.203178
vt 0.971731 0.158156
vt 0.949553 0.116663
vt 0.919706 0.080294
vt 0.883337 0.050447
vt 0.841844 0.028269
vt 0.750000 0.010000
vt 0.703178 0.014612
vt 0.658156 0.028269
vt 0.616663 0.050447
vt 0.580294 0.080294
vt 0.550447 0.116663
vt 0.528269 0.158156
vt 0.510000 0.250000
vt 0.514612 0.296822
vt 0.528269 0.341844
vt 0.550447 0.383337
vt 0.580295 0.419706
vt 0.616663 0.449553
vt 0.658156 0.471731
vt 0.781250 1.000000
vt 0.687500 1.000000
vt 0.343750 1.000000
vt 0.000000 1.000000
vn 0.0978 -0.0663 -0.9930
vn 0.2896 -0.0663 -0.9548
vn 0.4704 -0.0663 -0.8800
vn 0.6330 -0.0663 -0.7713
vn 0.7713 -0.0663 -0.6330
vn 0.8800 -0.0663 -0.4704
vn 0.9548 -0.0663 -0.2896
vn 0.9930 -0.0663 -0.0978
vn 0.9930 -0.0663 0.0978
vn 0.9548 -0.0663 0.2896
vn 0.8800 -0.0663 0.4704
vn 0.7713 -0.0663 0.6330
vn 0.6330 -0.0663 0.7713
vn 0.4704 -0.0663 0.8800
vn 0.2896 -0.0663 0.9548
vn 0.0978 -0.0663 0.9930
vn -0.0978 -0.0663 0.9930
vn -0.2896 -0.0663 0.9548
vn -0.4704 -0.0663 0.8800
vn -0.6330 -0.0663 0.7713
vn -0.7713 -0.0663 0.6330
vn -0.8800 -0.0663 0.4704
vn -0.9548 -0.0663 0.2896
vn -0.9930 -0.0663 0.0978
vn -0.9930 -0.0663 -0.0978
vn -0.9548 -0.0663 -0.2896
vn -0.8800 -0.0663 -0.4704
vn -0.7713 -0.0663 -0.6330
vn -0.6330 -0.0663 -0.7713
vn -0.4704 -0.0663 -0.8800
vn 0.0000 1.0000 0.0000
vn -0.2896 -0.0663 -0.9548
vn -0.0978 -0.0663 -0.9930
vn 0.0000 -1.0000 0.0000
usemtl Material.003
s off
f 17/29/27 18/30/27 16/31/27
f 19/32/28 20/33/28 18/30/28
f 21/34/29 22/35/29 20/33/29
f 23/36/30 24/37/30 22/35/30
f 25/38/31 26/39/31 24/37/31
f 27/40/32 28/41/32 26/39/32
f 29/42/33 30/43/33 28/41/33
f 30/43/34 33/44/34 32/45/34
f 33/44/35 34/46/35 32/45/35
f 35/47/36 36/48/36 34/46/36
f 36/48/37 39/49/37 38/50/37
f 39/49/38 40/51/38 38/50/38
f 41/52/39 42/53/39 40/51/39
f 43/54/40 44/55/40 42/53/40
f 45/56/41 46/57/41 44/55/41
f 47/58/42 48/59/42 46/57/42
f 49/60/43 50/61/43 48/59/43
f 51/62/44 52/63/44 50/61/44
f 53/64/45 54/65/45 52/63/45
f 55/66/46 56/67/46 54/65/46
f 57/68/47 58/69/47 56/67/47
f 58/69/48 61/70/48 60/71/48
f 61/70/49 62/72/49 60/71/49
f 63/73/50 64/74/50 62/72/50
f 65/75/51 66/76/51 64/74/51
f 67/77/52 68/78/52 66/76/52
f 69/79/53 70/80/53 68/78/53
f 71/81/54 72/82/54 70/80/54
f 73/83/55 74/84/55 72/82/55
f 75/85/56 76/86/56 74/84/56
f 69/87/57 53/88/57 37/89/57
f 77/90/58 78/91/58 76/86/58
f 79/92/59 16/93/59 78/91/59
f 30/94/60 46/95/60 62/96/60
f 21/97/57 19/98/57 17/99/57
f 17/99/57 79/100/57 77/101/57
f 77/101/57 75/102/57 69/87/57
f 75/102/57 73/103/57 69/87/57
f 73/103/57 71/104/57 69/87/57
f 69/87/57 67/105/57 65/106/57
f 65/106/57 63/107/57 69/87/57
f 63/107/57 61/108/57 69/87/57
f 61/108/57 59/109/57 57/110/57
f 57/110/57 55/111/57 61/108/57
f 55/111/57 53/88/57 61/108/57
f 53/88/57 51/112/57 45/113/57
f 51/112/57 49/114/57 45/113/57
f 49/114/57 47/115/57 45/113/57
f 45/113/57 43/116/57 41/117/57
f 41/117/57 39/118/57 37/89/57
f 37/89/57 35/119/57 33/120/57
f 33/120/57 31/121/57 37/89/57
f 31/121/57 29/122/57 37/89/57
f 29/122/57 27/123/57 25/124/57
f 25/124/57 23/125/57 29/122/57
f 23/125/57 21/97/57 29/122/57
f 21/97/57 17/99/57 69/87/57
f 17/99/57 77/101/57 69/87/57
f 45/113/57 41/117/57 37/89/57
f 69/87/57 61/108/57 53/88/57
f 53/88/57 45/113/57 37/89/57
f 37/89/57 29/122/57 21/97/57
f 21/97/57 69/87/57 37/89/57
f 78/126/60 16/127/60 22/128/60
f 16/127/60 18/129/60 22/128/60
f 18/129/60 20/130/60 22/128/60
f 22/128/60 24/131/60 30/94/60
f 24/131/60 26/132/60 30/94/60
f 26/132/60 28/133/60 30/94/60
f 30/94/60 32/134/60 34/135/60
f 34/135/60 36/136/60 30/94/60
f 36/136/60 38/137/60 30/94/60
f 38/137/60 40/138/60 42/139/60
f 42/139/60 44/140/60 46/95/60
f 46/95/60 48/141/60 50/142/60
f 50/142/60 52/143/60 46/95/60
f 52/143/60 54/144/60 46/95/60
f 54/144/60 56/145/60 58/146/60
f 58/146/60 60/147/60 54/144/60
f 60/147/60 62/96/60 54/144/60
f 62/96/60 64/148/60 66/149/60
f 66/149/60 68/150/60 62/96/60
f 68/150/60 70/151/60 62/96/60
f 70/151/60 72/152/60 74/153/60
f 74/153/60 76/154/60 78/126/60
f 38/137/60 42/139/60 30/94/60
f 42/139/60 46/95/60 30/94/60
f 70/151/60 74/153/60 62/96/60
f 74/153/60 78/126/60 62/96/60
f 78/126/60 22/128/60 30/94/60
f 46/95/60 54/144/60 62/96/60
f 78/126/60 30/94/60 62/96/60
f 17/29/27 19/32/27 18/30/27
f 19/32/28 21/34/28 20/33/28
f 21/34/29 23/36/29 22/35/29
f 23/36/30 25/38/30 24/37/30
f 25/38/31 27/40/31 26/39/31
f 27/40/32 29/42/32 28/41/32
f 29/42/33 31/155/33 30/43/33
f 30/43/34 31/155/34 33/44/34
f 33/44/35 35/47/35 34/46/35
f 35/47/36 37/156/36 36/48/36
f 36/48/37 37/156/37 39/49/37
f 39/49/38 41/52/38 40/51/38
f 41/52/39 43/54/39 42/53/39
f 43/54/40 45/56/40 44/55/40
f 45/56/41 47/58/41 46/57/41
f 47/58/42 49/60/42 48/59/42
f 49/60/43 51/62/43 50/61/43
f 51/62/44 53/64/44 52/63/44
f 53/64/45 55/66/45 54/65/45
f 55/66/46 57/68/46 56/67/46
f 57/68/47 59/157/47 58/69/47
f 58/69/48 59/157/48 61/70/48
f 61/70/49 63/73/49 62/72/49
f 63/73/50 65/75/50 64/74/50
f 65/75/51 67/77/51 66/76/51
f 67/77/52 69/79/52 68/78/52
f 69/79/53 71/81/53 70/80/53
f 71/81/54 73/83/54 72/82/54
f 73/83/55 75/85/55 74/84/55
f 75/85/56 77/90/56 76/86/56
f 77/90/58 79/92/58 78/91/58
f 79/92/59 17/158/59 16/93/59
