# Blender v2.80 (sub 75) OBJ File: ''
# www.blender.org
mtllib tree.mtl
o Icosphere
v 0.495333 2.955763 0.327820
v -2.970322 4.184416 -0.009253
v -0.897798 4.091697 -1.894569
v -2.073467 7.441948 -2.084613
v 2.750918 4.650036 0.717720
v 3.360601 7.296840 0.327823
v 0.981995 6.471921 2.575995
v -0.117256 4.650026 2.314274
v -3.103636 7.428440 1.347253
v 1.380753 7.296840 -2.452035
v 1.672241 4.650032 -1.883479
v -0.092872 7.955617 2.314274
v 1.036996 9.324629 0.631921
v -0.705461 9.649881 -0.346325
v -3.622850 6.133724 -0.009253
vt 0.272727 0.000000
vt 0.194689 0.137153
vt 0.340601 0.117562
vt 0.318592 0.288606
vt 0.681202 0.157461
vt 0.658666 0.274305
vt 0.818181 0.236191
vt 0.863020 0.157461
vt 0.985060 0.289045
vt 0.476848 0.274305
vt 0.499383 0.157461
vt 0.864252 0.314921
vt 0.727272 0.393651
vt 0.932540 0.431766
vt 0.106898 0.289045
vt 0.181818 0.393651
vt 0.351338 0.412450
vt 0.590909 0.393651
vt 0.522419 0.432483
vt 0.863635 0.393651
vt 0.181818 0.236191
vt 0.136065 0.116845
vt 0.000000 0.157461
vt 0.477994 0.040616
vt 0.386671 0.117562
vt 0.067874 0.039899
vt 0.636363 0.078731
vt 0.805883 0.059932
vn -0.2963 -0.9129 -0.2808
vn -0.6545 -0.2698 -0.7063
vn 0.6958 -0.0548 0.7161
vn -0.2810 0.0318 0.9592
vn -0.1092 -0.0945 -0.9895
vn 0.8140 -0.0349 -0.5798
vn 0.5056 0.4710 0.7228
vn -0.3142 0.7664 0.5604
vn -0.7420 0.6332 -0.2202
vn -0.0548 0.6384 -0.7677
vn 0.5701 0.7142 -0.4061
vn 0.4094 0.7826 -0.4690
vn -0.1600 0.8155 0.5562
vn -0.7915 0.5640 -0.2354
vn -0.2979 -0.0476 0.9534
vn 0.5030 0.4900 0.7120
vn 0.0487 -0.2046 -0.9776
vn -0.7020 -0.2350 -0.6722
vn -0.7893 -0.2642 0.5543
vn -0.5602 -0.3391 0.7558
vn 0.4486 -0.3864 0.8059
vn 0.8920 -0.2599 -0.3699
vn 0.1815 -0.8249 -0.5354
vn -0.3256 -0.7666 0.5534
vn 0.6087 -0.7522 -0.2524
vn 0.3708 -0.6470 0.6662
usemtl Material.002
s 1
f 1/1/1 2/2/1 3/3/1
f 3/3/2 2/2/2 4/4/2
f 5/5/3 6/6/3 7/7/3
f 8/8/4 7/7/4 9/9/4
f 3/3/5 4/4/5 10/10/5
f 11/11/6 10/10/6 6/6/6
f 12/12/7 6/6/7 13/13/7
f 9/9/8 12/12/8 14/14/8
f 4/4/9 9/15/9 14/16/9
f 10/10/10 4/4/10 14/17/10
f 6/6/11 10/10/11 13/18/11
f 13/18/12 10/10/12 14/19/12
f 14/14/13 12/12/13 13/20/13
f 15/21/14 9/15/14 4/4/14
f 9/9/15 7/7/15 12/12/15
f 7/7/16 6/6/16 12/12/16
f 11/11/17 3/3/17 10/10/17
f 4/4/18 2/2/18 15/21/18
f 15/21/19 2/22/19 9/15/19
f 2/22/20 8/23/20 9/15/20
f 8/8/21 5/5/21 7/7/21
f 5/5/22 11/11/22 6/6/22
f 1/24/23 3/25/23 11/11/23
f 1/26/24 8/23/24 2/22/24
f 5/5/25 1/27/25 11/11/25
f 1/28/26 5/5/26 8/8/26
o Cylinder
v 0.000000 -0.600788 0.648851
v -0.067544 3.211705 0.366733
v 0.000000 3.211705 0.373918
v -0.117208 -0.600788 0.636383
v -0.132493 3.211705 0.345455
v -0.229912 -0.600788 0.599460
v -0.192349 3.211705 0.310901
v -0.333780 -0.600788 0.539500
v -0.244814 3.211705 0.264400
v -0.424821 -0.600788 0.458807
v -0.287871 3.211705 0.207737
v -0.499537 -0.600788 0.360482
v -0.319866 3.211705 0.143092
v -0.555056 -0.600788 0.248304
v -0.339567 3.211705 0.072948
v -0.600788 -0.600788 -0.000000
v -0.346220 3.211705 0.000001
v -0.339568 3.211705 -0.072948
v -0.589244 -0.600788 -0.126585
v -0.319866 3.211705 -0.143092
v -0.499537 -0.600788 -0.360484
v -0.287871 3.211705 -0.207737
v -0.244814 3.211705 -0.264400
v -0.424821 -0.600788 -0.458808
v -0.192349 3.211705 -0.310901
v -0.333780 -0.600788 -0.539501
v -0.132493 3.211705 -0.345455
v -0.229912 -0.600788 -0.599462
v -0.067544 3.211705 -0.366733
v -0.117208 -0.600788 -0.636385
v 0.000000 3.211705 -0.373917
v 0.000000 -0.600788 -0.648852
v 0.067544 3.211705 -0.366733
v 0.117208 -0.600788 -0.636385
v 0.132493 3.211705 -0.345455
v 0.229912 -0.600788 -0.599461
v 0.192350 3.211705 -0.310901
v 0.333781 -0.600788 -0.539501
v 0.244815 3.211705 -0.264400
v 0.424822 -0.600788 -0.458808
v 0.287872 3.211705 -0.207737
v 0.555056 -0.600788 -0.248305
v 0.319866 3.211705 -0.143092
v 0.339568 3.211705 -0.072947
v 0.589245 -0.600788 -0.126585
v 0.346220 3.211705 0.000001
v 0.600788 -0.600788 -0.000000
v 0.339568 3.211705 0.072948
v 0.589244 -0.600788 0.126585
v 0.319866 3.211705 0.143093
v 0.555056 -0.600788 0.248305
v 0.287871 3.211705 0.207737
v 0.499537 -0.600788 0.360482
v 0.244814 3.211705 0.264400
v 0.424821 -0.600788 0.458808
v 0.192349 3.211705 0.310901
v 0.333780 -0.600788 0.539500
v 0.132492 3.211705 0.345455
v -0.555056 -0.600788 -0.248305
v 0.229911 -0.600788 0.599460
v 0.067544 3.211705 0.366733
v 0.117207 -0.600788 0.636383
v 0.499538 -0.600788 -0.360482
v -0.589244 -0.600788 0.126585
vt 1.000000 1.000000
vt 0.968750 0.500000
vt 1.000000 0.500000
vt 0.968750 1.000000
vt 0.937500 0.500000
vt 0.937500 1.000000
vt 0.906250 0.500000
vt 0.906250 1.000000
vt 0.875000 0.500000
vt 0.875000 1.000000
vt 0.843750 0.500000
vt 0.843750 1.000000
vt 0.812500 0.500000
vt 0.812500 1.000000
vt 0.781250 0.500000
vt 0.750000 1.000000
vt 0.750000 0.500000
vt 0.718750 0.500000
vt 0.718750 1.000000
vt 0.687500 0.500000
vt 0.656250 1.000000
vt 0.656250 0.500000
vt 0.625000 0.500000
vt 0.625000 1.000000
vt 0.593750 0.500000
vt 0.593750 1.000000
vt 0.562500 0.500000
vt 0.562500 1.000000
vt 0.531250 0.500000
vt 0.531250 1.000000
vt 0.500000 0.500000
vt 0.500000 1.000000
vt 0.468750 0.500000
vt 0.468750 1.000000
vt 0.437500 0.500000
vt 0.437500 1.000000
vt 0.406250 0.500000
vt 0.406250 1.000000
vt 0.375000 0.500000
vt 0.375000 1.000000
vt 0.343750 0.500000
vt 0.312500 1.000000
vt 0.312500 0.500000
vt 0.281250 0.500000
vt 0.281250 1.000000
vt 0.250000 0.500000
vt 0.250000 1.000000
vt 0.218750 0.500000
vt 0.218750 1.000000
vt 0.187500 0.500000
vt 0.187500 1.000000
vt 0.156250 0.500000
vt 0.156250 1.000000
vt 0.125000 0.500000
vt 0.125000 1.000000
vt 0.093750 0.500000
vt 0.093750 1.000000
vt 0.062500 0.500000
vt 0.028269 0.341844
vt 0.158156 0.028269
vt 0.471731 0.158156
vt 0.062500 1.000000
vt 0.031250 0.500000
vt 0.031250 1.000000
vt 0.000000 0.500000
vt 0.985388 0.296822
vt 0.796822 0.014612
vt 0.514611 0.203179
vt 0.341844 0.471731
vt 0.296822 0.485388
vt 0.250000 0.490000
vt 0.203179 0.485389
vt 0.158156 0.471731
vt 0.116663 0.449553
vt 0.080295 0.419706
vt 0.050447 0.383337
vt 0.014612 0.296822
vt 0.010000 0.250000
vt 0.014611 0.203179
vt 0.028269 0.158156
vt 0.050447 0.116663
vt 0.080294 0.080294
vt 0.116663 0.050447
vt 0.203178 0.014612
vt 0.341844 0.028269
vt 0.250000 0.010000
vt 0.296822 0.014612
vt 0.383337 0.050447
vt 0.419706 0.080294
vt 0.449553 0.116663
vt 0.485388 0.203178
vt 0.490000 0.250000
vt 0.485388 0.296822
vt 0.471731 0.341844
vt 0.449553 0.383337
vt 0.419706 0.419706
vt 0.383337 0.449553
vt 0.703179 0.485389
vt 0.750000 0.490000
vt 0.883337 0.449553
vt 0.796822 0.485388
vt 0.841844 0.471731
vt 0.919706 0.419706
vt 0.949553 0.383337
vt 0.971731 0.341844
vt 0.990000 0.250000
vt 0.985388 0.203178
vt 0.971731 0.158156
vt 0.949553 0.116663
vt 0.919706 0.080294
vt 0.883337 0.050447
vt 0.841844 0.028269
vt 0.750000 0.010000
vt 0.703178 0.014612
vt 0.658156 0.028269
vt 0.616663 0.050447
vt 0.580294 0.080294
vt 0.550447 0.116663
vt 0.528269 0.158156
vt 0.510000 0.250000
vt 0.514612 0.296822
vt 0.528269 0.341844
vt 0.550447 0.383337
vt 0.580295 0.419706
vt 0.616663 0.449553
vt 0.658156 0.471731
vt 0.781250 1.000000
vt 0.687500 1.000000
vt 0.343750 1.000000
vt 0.000000 1.000000
vn 0.1055 -0.0715 -0.9918
vn 0.3105 -0.0711 -0.9479
vn 0.4987 -0.0703 -0.8639
vn 0.6617 -0.0693 -0.7466
vn 0.7943 -0.0683 -0.6036
vn 0.8942 -0.0674 -0.4426
vn 0.9606 -0.0667 -0.2698
vn 0.9937 -0.0663 -0.0906
vn 0.9937 -0.0663 0.0906
vn 0.9606 -0.0667 0.2698
vn 0.8942 -0.0674 0.4426
vn 0.7943 -0.0683 0.6036
vn 0.6617 -0.0693 0.7466
vn 0.4987 -0.0703 0.8639
vn 0.3105 -0.0711 0.9479
vn 0.1055 -0.0715 0.9918
vn -0.1055 -0.0715 0.9918
vn -0.3106 -0.0711 0.9479
vn -0.3105 -0.0711 0.9479
vn -0.4987 -0.0703 0.8639
vn -0.6617 -0.0693 0.7466
vn -0.7943 -0.0683 0.6036
vn -0.8942 -0.0674 0.4426
vn -0.9606 -0.0667 0.2698
vn -0.9937 -0.0663 0.0906
vn -0.9937 -0.0663 -0.0906
vn -0.9606 -0.0667 -0.2698
vn -0.8942 -0.0674 -0.4426
vn -0.7943 -0.0683 -0.6036
vn -0.6617 -0.0693 -0.7466
vn -0.4987 -0.0703 -0.8639
vn -0.0000 1.0000 0.0000
vn -0.3105 -0.0711 -0.9479
vn -0.1055 -0.0715 -0.9918
vn 0.0000 -1.0000 -0.0000
usemtl Material.003
s 1
f 16/29/27 17/30/27 18/31/27
f 19/32/28 20/33/28 17/30/28
f 21/34/29 22/35/29 20/33/29
f 23/36/30 24/37/30 22/35/30
f 25/38/31 26/39/31 24/37/31
f 27/40/32 28/41/32 26/39/32
f 29/42/33 30/43/33 28/41/33
f 30/43/34 31/44/34 32/45/34
f 31/44/35 33/46/35 32/45/35
f 34/47/36 35/48/36 33/46/36
f 35/48/37 36/49/37 37/50/37
f 36/49/38 38/51/38 37/50/38
f 39/52/39 40/53/39 38/51/39
f 41/54/40 42/55/40 40/53/40
f 43/56/41 44/57/41 42/55/41
f 45/58/42 46/59/42 44/57/42
f 47/60/43 48/61/43 46/59/43
f 49/62/44 50/63/45 48/61/45
f 51/64/46 52/65/46 50/63/46
f 53/66/47 54/67/47 52/65/47
f 55/68/48 56/69/48 54/67/48
f 56/69/49 57/70/49 58/71/49
f 57/70/50 59/72/50 58/71/50
f 60/73/51 61/74/51 59/72/51
f 62/75/52 63/76/52 61/74/52
f 64/77/53 65/78/53 63/76/53
f 66/79/54 67/80/54 65/78/54
f 68/81/55 69/82/55 67/80/55
f 70/83/56 71/84/56 69/82/56
f 72/85/57 73/86/57 71/84/57
f 66/87/58 51/88/58 74/89/58
f 75/90/59 76/91/59 73/86/59
f 77/92/60 18/93/60 76/91/60
f 30/94/61 44/95/61 59/96/61
f 21/97/58 19/98/58 16/99/58
f 16/99/58 77/100/58 75/101/58
f 75/101/58 72/102/58 66/87/58
f 72/102/58 70/103/58 66/87/58
f 70/103/58 68/104/58 66/87/58
f 66/87/58 64/105/58 62/106/58
f 62/106/58 60/107/58 66/87/58
f 60/107/58 57/108/58 66/87/58
f 57/108/58 78/109/58 55/110/58
f 55/110/58 53/111/58 57/108/58
f 53/111/58 51/88/58 57/108/58
f 51/88/58 49/112/58 43/113/58
f 49/112/58 47/114/58 43/113/58
f 47/114/58 45/115/58 43/113/58
f 43/113/58 41/116/58 39/117/58
f 39/117/58 36/118/58 74/89/58
f 74/89/58 34/119/58 31/120/58
f 31/120/58 79/121/58 74/89/58
f 79/121/58 29/122/58 74/89/58
f 29/122/58 27/123/58 25/124/58
f 25/124/58 23/125/58 29/122/58
f 23/125/58 21/97/58 29/122/58
f 21/97/58 16/99/58 66/87/58
f 16/99/58 75/101/58 66/87/58
f 43/113/58 39/117/58 74/89/58
f 66/87/58 57/108/58 51/88/58
f 51/88/58 43/113/58 74/89/58
f 74/89/58 29/122/58 21/97/58
f 21/97/58 66/87/58 74/89/58
f 76/126/61 18/127/61 22/128/61
f 18/127/61 17/129/61 22/128/61
f 17/129/61 20/130/61 22/128/61
f 22/128/61 24/131/61 30/94/61
f 24/131/61 26/132/61 30/94/61
f 26/132/61 28/133/61 30/94/61
f 30/94/61 32/134/61 33/135/61
f 33/135/61 35/136/61 30/94/61
f 35/136/61 37/137/61 30/94/61
f 37/137/61 38/138/61 40/139/61
f 40/139/61 42/140/61 44/95/61
f 44/95/61 46/141/61 48/142/61
f 48/142/61 50/143/61 44/95/61
f 50/143/61 52/144/61 44/95/61
f 52/144/61 54/145/61 56/146/61
f 56/146/61 58/147/61 52/144/61
f 58/147/61 59/96/61 52/144/61
f 59/96/61 61/148/61 63/149/61
f 63/149/61 65/150/61 59/96/61
f 65/150/61 67/151/61 59/96/61
f 67/151/61 69/152/61 71/153/61
f 71/153/61 73/154/61 76/126/61
f 37/137/61 40/139/61 30/94/61
f 40/139/61 44/95/61 30/94/61
f 67/151/61 71/153/61 59/96/61
f 71/153/61 76/126/61 59/96/61
f 76/126/61 22/128/61 30/94/61
f 44/95/61 52/144/61 59/96/61
f 76/126/61 30/94/61 59/96/61
f 16/29/27 19/32/27 17/30/27
f 19/32/28 21/34/28 20/33/28
f 21/34/29 23/36/29 22/35/29
f 23/36/30 25/38/30 24/37/30
f 25/38/31 27/40/31 26/39/31
f 27/40/32 29/42/32 28/41/32
f 29/42/33 79/155/33 30/43/33
f 30/43/34 79/155/34 31/44/34
f 31/44/35 34/47/35 33/46/35
f 34/47/36 74/156/36 35/48/36
f 35/48/37 74/156/37 36/49/37
f 36/49/38 39/52/38 38/51/38
f 39/52/39 41/54/39 40/53/39
f 41/54/40 43/56/40 42/55/40
f 43/56/41 45/58/41 44/57/41
f 45/58/42 47/60/42 46/59/42
f 47/60/43 49/62/43 48/61/43
f 49/62/44 51/64/44 50/63/45
f 51/64/46 53/66/46 52/65/46
f 53/66/47 55/68/47 54/67/47
f 55/68/48 78/157/48 56/69/48
f 56/69/49 78/157/49 57/70/49
f 57/70/50 60/73/50 59/72/50
f 60/73/51 62/75/51 61/74/51
f 62/75/52 64/77/52 63/76/52
f 64/77/53 66/79/53 65/78/53
f 66/79/54 68/81/54 67/80/54
f 68/81/55 70/83/55 69/82/55
f 70/83/56 72/85/56 71/84/56
f 72/85/57 75/90/57 73/86/57
f 75/90/59 77/92/59 76/91/59
f 77/92/60 16/158/60 18/93/60
